<?xml version="1.0" encoding="utf-8"?>
<!-- Generator: Adobe Illustrator 24.0.0, SVG Export Plug-In . SVG Version: 6.00 Build 0)  -->
<svg version="1.1" id="b1c121f6-5782-4527-a6ee-a39cd8953237"
	 xmlns="http://www.w3.org/2000/svg" xmlns:xlink="http://www.w3.org/1999/xlink" x="0px" y="0px" viewBox="0 0 726.6 714.3"
	 style="enable-background:new 0 0 726.6 714.3;" xml:space="preserve">
<style type="text/css">
	.st0{fill:#F2F2F2;}
	.st1{fill:#3F3D56;}
	.st2{fill:#6C63FF;}
	.st3{fill:#FF6584;}
	.st4{fill:none;stroke:#3F3D56;stroke-width:2;stroke-miterlimit:10;}
	.st5{opacity:0.1;enable-background:new    ;}
</style>
<title>loving it</title>
<rect x="191.8" y="-7.2" transform="matrix(0.5219 -0.853 0.853 0.5219 -93.9982 459.9547)" class="st0" width="343" height="642"/>
<polygon class="st1" points="491.3,104.3 58.3,104.3 58.3,341.3 363.8,341.3 366.1,394.2 417.1,361.7 449.1,341.3 491.3,341.3 "/>
<path class="st2" d="M274.8,294.7l-11.3-10.2c-40.1-36.8-66.6-60.7-66.6-90.5c0-24.3,18.7-43.1,42.8-43.1
	c13.5,0.1,26.4,6.1,35.1,16.5c8.7-10.4,21.5-16.4,35.1-16.5c24.1,0,42.8,18.8,42.8,43.1c0,29.8-26.5,53.7-66.6,90.5L274.8,294.7z"/>
<circle class="st3" cx="271.4" cy="604.6" r="6.5"/>
<line class="st4" x1="401" y1="711.8" x2="674" y2="711.8"/>
<line class="st4" x1="238" y1="711.8" x2="367" y2="711.8"/>
<line class="st4" x1="303.5" y1="713" x2="303.5" y2="638.6"/>
<circle class="st1" cx="303.5" cy="638.6" r="10.5"/>
<path class="st1" d="M303.5,684.5c0,0-1.5-32.3-32.3-28.6"/>
<path class="st1" d="M555.4,615c-27.3,41.8-19.8,95-19.8,95s51.7-14.6,79-56.5s19.8-95,19.8-95S582.7,573.1,555.4,615z"/>
<path class="st2" d="M535.4,709.5c0,0-0.7-0.1-1.9-0.4c-1-0.2-2.3-0.5-4-0.9c-14.7-3.5-53.6-15.1-79.1-45.8
	c-31.9-38.4-30.5-92.2-30.5-92.2s48.7,7.9,80.9,42.4c1.4,1.5,2.7,3,4.1,4.6c27.7,33.5,30.3,78.5,30.5,89.6
	C535.5,708.6,535.4,709.5,535.4,709.5z"/>
<path class="st4" d="M515.8,615c27.3,41.8,19.8,95,19.8,95s-51.7-14.6-79-56.5s-19.8-95-19.8-95S488.5,573.1,515.8,615z"/>
<path class="st5" d="M535.4,707c-0.7,0.9-1.4,1.6-1.9,2.2c-1.2,1.3-1.8,2-1.8,2s-0.8-1-2.1-2.9c-7.4-10.3-31.1-46.8-29.2-89
	c0.1-2.2,0.3-4.4,0.5-6.6c1.4,1.5,2.7,3,4.1,4.6C532.6,650.8,535.2,695.8,535.4,707z"/>
<path class="st2" d="M575.9,622.4c-2.2,49.9-39.2,88.8-39.2,88.8s-33.5-42-31.4-91.9s39.2-88.8,39.2-88.8S578,572.5,575.9,622.4z"/>
<line class="st4" x1="536.7" y1="709.8" x2="544.8" y2="532.5"/>
</svg>
