<?xml version="1.0" encoding="utf-8"?>
<!-- Generator: Adobe Illustrator 24.0.0, SVG Export Plug-In . SVG Version: 6.00 Build 0)  -->
<svg version="1.1" id="_x39_4c1f45f-2d92-458e-bbfe-f6c69da92e14"
	 xmlns="http://www.w3.org/2000/svg" xmlns:xlink="http://www.w3.org/1999/xlink" x="0px" y="0px" viewBox="0 0 947 835"
	 style="enable-background:new 0 0 947 835;" xml:space="preserve">
<style type="text/css">
	.st0{opacity:5.000000e-02;fill:#536DFE;}
	.st1{opacity:0.1;fill:#536DFE;enable-background:new    ;}
	.st2{fill:none;stroke:#535461;stroke-width:2;stroke-miterlimit:10;}
	.st3{fill:#536DFE;}
	.st4{opacity:0.25;enable-background:new    ;}
	.st5{fill:#E6E8EC;}
	.st6{fill:#DCDFED;}
	.st7{opacity:0.1;enable-background:new    ;}
	.st8{fill:#E3E5F1;}
</style>
<title>envelope</title>
<path class="st0" d="M550.2,95.2c-60.7-1.9-118.5-19.8-173.7-39.3S266.6,14.7,207.3,4.4c-38.1-6.7-81.7-7.6-112.4,11
	C65.4,33.3,55.8,64.2,50.7,92.9c-3.9,21.6-6.1,44.3,4.4,64.5c7.3,14,20.4,25.8,29.4,39.3c31.4,46.8,9.2,104.5-24.8,150.1
	c-16,21.4-34.5,41.9-46.8,64.7s-18,49-7.2,72.2c10.7,23,36.1,40.4,63.7,52.6c56,24.7,122,31.8,186.3,35.8
	c142.4,8.9,285.6,5,428.4,1.2c52.8-1.4,105.9-2.9,157.9-10.3c28.9-4.1,58.7-10.7,79.6-26.5c26.6-20.1,33.2-54.2,15.4-79.4
	c-29.9-42.3-112.5-52.8-133.5-98.2c-11.5-25,0.3-52.8,17-76c35.9-49.7,96-93.3,99.2-150.1c2.2-39.1-26.7-78.1-71.4-96.6
	c-46.8-19.4-111.8-16.9-146.4,15.1C666.3,84.2,603.8,96.9,550.2,95.2z"/>
<ellipse class="st1" cx="435.5" cy="804" rx="290.8" ry="29.3"/>
<path class="st2" d="M169.6,800.8c0,0-12.9-73.1-60.8-109.3c-20.1-15.2-34.8-35.9-41.2-59.4c-3-11.2-5-22.6-5.8-34.1"/>
<path class="st3" d="M31.8,575c4,7.8,30.7,23.7,30.7,23.7s3.4-29.6-0.7-37.5s-14-11.1-22.3-7.3S27.7,567.1,31.8,575z"/>
<path class="st3" d="M29.2,629.8c7.9,4.5,39.4,4.1,39.4,4.1s-14.2-26.6-22.1-31.1s-18.2-2.1-22.9,5.3S21.3,625.3,29.2,629.8z"/>
<path class="st3" d="M68.4,703.5c9.2,0.1,36.2-15.2,36.2-15.2s-26.5-16.2-35.7-16.3s-16.8,6.8-17,15.5S59.2,703.3,68.4,703.5z"/>
<path class="st3" d="M111.4,752.9c9.1,1.6,38.4-9.2,38.4-9.2s-23.2-20.2-32.3-21.8s-17.8,4-19.5,12.6S102.3,751.3,111.4,752.9z"/>
<path class="st3" d="M101,620.9c-3.1,8.2-28,26.5-28,26.5s-6.6-29.1-3.4-37.3s12.7-12.4,21.4-9.5S104.1,612.8,101,620.9z"/>
<path class="st3" d="M150.5,679.4c-5.6,6.9-35.1,17.4-35.1,17.4s3-29.7,8.6-36.6c5.8-7,16-8.3,23.4-3c6.9,4.8,8.7,14.2,3.9,21.1
	C151,678.7,150.7,679.1,150.5,679.4z"/>
<path class="st3" d="M190.3,742.4c-4.3,7.7-31.5,22.8-31.5,22.8s-2.4-29.7,1.9-37.4s14.4-10.7,22.5-6.7S194.6,734.7,190.3,742.4z"/>
<path class="st4" d="M31.8,575c4,7.8,30.7,23.7,30.7,23.7s3.4-29.6-0.7-37.5s-14-11.1-22.3-7.3S27.7,567.1,31.8,575z"/>
<path class="st4" d="M29.2,629.8c7.9,4.5,39.4,4.1,39.4,4.1s-14.2-26.6-22.1-31.1s-18.2-2.1-22.9,5.3S21.3,625.3,29.2,629.8z"/>
<path class="st4" d="M68.4,703.5c9.2,0.1,36.2-15.2,36.2-15.2s-26.5-16.2-35.7-16.3s-16.8,6.8-17,15.5S59.2,703.3,68.4,703.5z"/>
<path class="st4" d="M111.4,752.9c9.1,1.6,38.4-9.2,38.4-9.2s-23.2-20.2-32.3-21.8s-17.8,4-19.5,12.6S102.3,751.3,111.4,752.9z"/>
<path class="st4" d="M101,620.9c-3.1,8.2-28,26.5-28,26.5s-6.6-29.1-3.4-37.3s12.7-12.4,21.4-9.5S104.1,612.8,101,620.9z"/>
<path class="st4" d="M150.5,679.4c-5.6,6.9-35.1,17.4-35.1,17.4s3-29.7,8.6-36.6c5.8-7,16-8.3,23.4-3c6.9,4.8,8.7,14.2,3.9,21.1
	C151,678.7,150.7,679.1,150.5,679.4z"/>
<path class="st4" d="M190.3,742.4c-4.3,7.7-31.5,22.8-31.5,22.8s-2.4-29.7,1.9-37.4s14.4-10.7,22.5-6.7S194.6,734.7,190.3,742.4z"/>
<path class="st2" d="M167.9,798.9c0,0,19.6-71.8-8.6-123.2c-11.8-21.6-16.4-46.1-12.2-70.1c2-11.4,5.2-22.6,9.4-33.4"/>
<path class="st3" d="M138.9,539.7c0.3,8.7,17.9,33.4,17.9,33.4s15.8-25.8,15.5-34.5s-8.1-15.5-17.3-15.2S138.6,531,138.9,539.7z"/>
<path class="st3" d="M113,588.8c5.3,7.1,34.3,18.8,34.3,18.8s-1.6-29.7-6.9-36.9c-5.5-7.2-15.7-8.9-23.3-3.9
	c-7.1,4.5-9.3,13.9-4.8,21C112.6,588.2,112.8,588.5,113,588.8z"/>
<path class="st3" d="M117.2,671.2c8.4,3.7,39.7-0.1,39.7-0.1s-17.3-24.9-25.7-28.6s-18.3-0.2-22.2,7.7S108.9,667.6,117.2,671.2z"/>
<path class="st3" d="M135.3,732.9c7.6,4.9,39.1,6.2,39.1,6.2s-12.6-27.3-20.2-32.2c-7.6-4.9-17.7-3.2-23.2,4
	c-5,6.8-3.5,16.3,3.3,21.3C134.6,732.4,134.9,732.6,135.3,732.9z"/>
<path class="st3" d="M182.5,608.2c-6.4,6.3-37,13.6-37,13.6s6.5-29.2,12.9-35.4c6.6-6.3,16.8-6.5,23.6-0.4
	c6.3,5.5,6.9,15.1,1.4,21.4C183,607.6,182.8,607.9,182.5,608.2z"/>
<path class="st3" d="M202.6,680.6c-8.1,4.2-39.6,2.5-39.6,2.5s15.4-26,23.5-30.2s18.2-1.4,22.7,6.2S210.7,676.4,202.6,680.6z"/>
<path class="st3" d="M211.9,753.4c-7.2,5.4-38.6,8.8-38.6,8.8s10.6-28.1,17.8-33.5c7.3-5.4,17.5-4.3,23.5,2.5
	c5.4,6.4,4.7,16-1.7,21.4C212.6,752.9,212.3,753.2,211.9,753.4z"/>
<circle class="st5" cx="689.4" cy="337.8" r="0.4"/>
<path class="st6" d="M499.6,216.1L238.1,385.7l170.7,307.8c1.6,2.9,4.4,5,7.6,5.8L571,737.1c5.5,1.3,11.1-1.3,13.5-6.4l76.7-159.4
	l84.1-112.4l-199.5-236C534.3,209.4,514.6,206.4,499.6,216.1z"/>
<path class="st7" d="M748,460.3l-0.7,1L698,527.1l-0.9,1.2l-33.2,44.4L598.3,709l-1.8,3.8l-9.3,19.2c-2.4,5.1-8.1,7.7-13.6,6.4
	L419,700.7c-3.2-0.8-6-2.9-7.6-5.8l-14.9-26.8l-2.7-4.8L286.6,469.6l-0.9-1.6l-44.9-80.9l5.4-3.5l41.1-26.6l1-0.6l86.5-56.1l5.5-3.5
	l122-79.2c14.9-9.7,34.7-6.8,46.2,6.8l91,107.7l4,4.8l66,78.1l0.4,0.4l33.2,39.3l4.2,5L748,460.3z"/>
<path class="st7" d="M707.3,414l-8.1,56l-2.4,16.9l-1.4,36l-0.1,2.8l-7.2,188.1c-0.3,6.6-5.8,11.7-12.4,11.4c-0.7,0-1.4-0.1-2.1-0.3
	l-77.9-17.4l-0.8-0.2l-199.9-44.6l-3.7-0.8l-109.9-24.5l2.5-169.1l0.1-5.6l0.8-51.2l0.8-56.5l86.5-56.1l5.5-3.5
	c80.3,8.2,187,24.1,259.3,35.4l4,4.8l66,78.1L707.3,414z"/>
<path class="st3" d="M716.5,347.6l-9.5,66l-8.7,60.4l-2.4,16.9l-1.4,36l-7.3,190.9c-0.3,6.6-5.8,11.7-12.4,11.4
	c-0.7,0-1.4-0.1-2.1-0.3l-78.8-17.6l-199.9-44.6l-113.6-25.4l2.6-174.8l0.8-51.2l0.9-59.9l0.9-61.6c18.8-0.9,49.7,1.1,86.6,4.8
	c82.6,8.3,195.2,25.1,268.8,36.6C686,342.5,716.5,347.6,716.5,347.6z"/>
<path class="st7" d="M740.6,453.3L698.3,474L482.6,579.8L283.7,415.5l-40.2-33.3l-5.4,3.5l44.9,80.9l-2.6,174.8L394,666.8l14.8,26.8
	c1.6,2.9,4.4,5,7.6,5.8L571,737.1c5.5,1.3,11.1-1.4,13.5-6.4l9.3-19.2l78.8,17.6c6.4,1.4,12.8-2.6,14.2-9.1c0.2-0.7,0.2-1.4,0.3-2.1
	l7.3-190.9l50.1-67l0.1-1.7L740.6,453.3z"/>
<path class="st6" d="M238.1,385.7l-17.8,305.3c-0.3,5.8,3.6,11.1,9.3,12.3l473.5,105.1c6.4,1.4,12.8-2.7,14.2-9.1
	c0.1-0.5,0.2-1,0.2-1.6l27.8-339L482.6,587.8L238.1,385.7z"/>
<path class="st7" d="M223.6,698.1l246-151.8c7.5-4.6,17.2-3,23,3.6l220.2,256.8c0.8,0.9,1.2,0.3,0,0L223.6,698.1
	C222.2,697.8,222.3,698.8,223.6,698.1z"/>
<path class="st8" d="M225.3,697.8l243.5-147.1c7.9-4.8,18.2-3.2,24.3,3.8l218.2,250.9c1,1.1,0.8,2.8-0.3,3.7
	c-0.6,0.5-1.5,0.8-2.3,0.6L226.1,702.6c-1.4-0.3-2.3-1.7-2-3.1C224.3,698.8,224.7,698.2,225.3,697.8z"/>
</svg>
