<?xml version="1.0" encoding="utf-8"?>
<!-- Generator: Adobe Illustrator 24.0.0, SVG Export Plug-In . SVG Version: 6.00 Build 0)  -->
<svg version="1.1" id="_x30_1de04e9-0eb8-4bc0-bdda-127678a3489e"
	 xmlns="http://www.w3.org/2000/svg" xmlns:xlink="http://www.w3.org/1999/xlink" x="0px" y="0px" viewBox="0 0 877 830"
	 style="enable-background:new 0 0 877 830;" xml:space="preserve">
<style type="text/css">
	.st0{opacity:0.1;fill:#536DFE;enable-background:new    ;}
	.st1{fill:none;stroke:#535461;stroke-width:2;stroke-miterlimit:10;}
	.st2{fill:#536DFE;}
	.st3{fill:none;stroke:#536DFE;stroke-miterlimit:10;}
	.st4{opacity:0.1;enable-background:new    ;}
	.st5{fill:#A8A8A8;}
	.st6{opacity:0.2;enable-background:new    ;}
	.st7{fill:#FFD037;}
	.st8{fill:url(#SVGID_1_);}
	.st9{fill:#F4F6F7;}
	.st10{opacity:0.6;}
	.st11{fill:url(#SVGID_2_);}
	.st12{fill:#FFFFFF;}
	.st13{fill:url(#SVGID_3_);}
	.st14{fill:url(#SVGID_4_);}
	.st15{fill:url(#SVGID_5_);}
	.st16{fill:url(#SVGID_6_);}
	.st17{fill:url(#SVGID_7_);}
	.st18{fill:url(#SVGID_8_);}
	.st19{fill:url(#SVGID_9_);}
	.st20{fill:url(#SVGID_10_);}
	.st21{fill:url(#SVGID_11_);}
	.st22{fill:url(#SVGID_12_);}
	.st23{fill:url(#SVGID_13_);}
	.st24{fill:url(#SVGID_14_);}
	.st25{fill:url(#SVGID_15_);}
	.st26{fill:url(#SVGID_16_);}
	.st27{fill:#DFE5EE;}
	.st28{fill:#EBF1F6;}
	.st29{fill:url(#SVGID_17_);}
	.st30{fill:url(#SVGID_18_);}
	.st31{fill:url(#SVGID_19_);}
	.st32{fill:#FFBDC6;}
	.st33{fill:#7679B4;}
	.st34{fill:#A66477;}
	.st35{fill:#F2F1F2;}
	.st36{fill:#565388;}
	.st37{opacity:0.1;}
</style>
<title>messenger</title>
<ellipse class="st0" cx="425.3" cy="780.8" rx="295.9" ry="49.2"/>
<path class="st1" d="M239.7,756c0,0-17.5-59.2,3.3-102.8c8.8-18.2,11.5-38.8,7.6-58.7c-1.9-9.4-4.7-18.6-8.3-27.5"/>
<path class="st2" d="M255.2,539.4c0,7.3-13.1,28.3-13.1,28.3s-13.1-21-13.1-28.3c-0.2-7.3,5.5-13.3,12.8-13.5
	c7.3-0.2,13.3,5.5,13.5,12.8C255.2,538.9,255.2,539.1,255.2,539.4L255.2,539.4z"/>
<path class="st2" d="M276.9,579.6c-4,6.1-26.5,16.6-26.5,16.6s0.4-24.8,4.4-30.9c4.1-6,12.3-7.5,18.3-3.5
	C278.9,565.8,280.5,573.6,276.9,579.6L276.9,579.6z"/>
<path class="st2" d="M275.9,648.3c-6.5,3.3-31.2,1-31.2,1s12.9-21.2,19.4-24.5c6.4-3.4,14.4-0.9,17.8,5.5c3.4,6.4,0.9,14.4-5.5,17.8
	C276.2,648.2,276.1,648.2,275.9,648.3L275.9,648.3z"/>
<path class="st2" d="M263.5,700.2c-5.8,4.3-30.6,6.3-30.6,6.3s9.1-23.1,15-27.4c5.7-4.5,14-3.5,18.5,2.3s3.5,14-2.3,18.5
	C263.9,699.9,263.7,700,263.5,700.2L263.5,700.2z"/>
<path class="st2" d="M222.9,597.6c5.2,5.1,29.5,10.3,29.5,10.3s-5.9-24.1-11.1-29.2c-5.1-5.2-13.4-5.3-18.6-0.2
	c-5.2,5.1-5.3,13.4-0.2,18.6C222.6,597.3,222.7,597.5,222.9,597.6z"/>
<path class="st2" d="M209.1,658.4c6.5,3.3,31.2,1,31.2,1s-12.9-21.2-19.4-24.5c-6.4-3.4-14.4-0.9-17.8,5.5
	c-3.4,6.4-0.9,14.4,5.5,17.8C208.8,658.3,209,658.4,209.1,658.4L209.1,658.4z"/>
<path class="st2" d="M203.8,719.4c5.8,4.3,30.6,6.3,30.6,6.3s-9.1-23.1-15-27.4c-5.7-4.5-14-3.5-18.5,2.3s-3.5,14,2.3,18.5
	C203.4,719.1,203.6,719.2,203.8,719.4L203.8,719.4z"/>
<path class="st0" d="M255.2,539.4c0,7.3-13.1,28.3-13.1,28.3s-13.1-21-13.1-28.3c-0.2-7.3,5.5-13.3,12.8-13.5
	c7.3-0.2,13.3,5.5,13.5,12.8C255.2,538.9,255.2,539.1,255.2,539.4L255.2,539.4z"/>
<path class="st0" d="M276.9,579.6c-4,6.1-26.5,16.6-26.5,16.6s0.4-24.8,4.4-30.9c4.1-6,12.3-7.5,18.3-3.5
	C278.9,565.8,280.5,573.6,276.9,579.6L276.9,579.6z"/>
<path class="st0" d="M275.9,648.3c-6.5,3.3-31.2,1-31.2,1s12.9-21.2,19.4-24.5c6.4-3.4,14.4-0.9,17.8,5.5c3.4,6.4,0.9,14.4-5.5,17.8
	C276.2,648.2,276.1,648.2,275.9,648.3L275.9,648.3z"/>
<path class="st0" d="M263.5,700.2c-5.8,4.3-30.6,6.3-30.6,6.3s9.1-23.1,15-27.4c5.7-4.5,14-3.5,18.5,2.3s3.5,14-2.3,18.5
	C263.9,699.9,263.7,700,263.5,700.2L263.5,700.2z"/>
<path class="st0" d="M222.9,597.6c5.2,5.1,29.5,10.3,29.5,10.3s-5.9-24.1-11.1-29.2c-5.1-5.2-13.4-5.3-18.6-0.2
	c-5.2,5.1-5.3,13.4-0.2,18.6C222.6,597.3,222.7,597.5,222.9,597.6z"/>
<path class="st0" d="M209.1,658.4c6.5,3.3,31.2,1,31.2,1s-12.9-21.2-19.4-24.5c-6.4-3.4-14.4-0.9-17.8,5.5
	c-3.4,6.4-0.9,14.4,5.5,17.8C208.8,658.3,209,658.4,209.1,658.4L209.1,658.4z"/>
<path class="st0" d="M203.8,719.4c5.8,4.3,30.6,6.3,30.6,6.3s-9.1-23.1-15-27.4c-5.7-4.5-14-3.5-18.5,2.3s-3.5,14,2.3,18.5
	C203.4,719.1,203.6,719.2,203.8,719.4L203.8,719.4z"/>
<path class="st1" d="M585.5,752.1c0,0-17.5-59.2,3.3-102.8c8.8-18.2,11.5-38.8,7.6-58.7c-1.9-9.4-4.7-18.6-8.3-27.5"/>
<path class="st2" d="M601,535.4c0,7.3-13.2,28.3-13.2,28.3s-13.2-21-13.2-28.3c0.2-7.3,6.2-13,13.5-12.8
	C595.2,522.8,600.8,528.4,601,535.4L601,535.4z"/>
<path class="st2" d="M622.7,575.6c-4,6.1-26.4,16.6-26.4,16.6s0.4-24.8,4.3-30.9c3.8-6.2,11.9-8.1,18.1-4.3
	c6.2,3.8,8.1,11.9,4.3,18.1C622.9,575.3,622.8,575.5,622.7,575.6z"/>
<path class="st2" d="M621.8,644.4c-6.5,3.3-31.2,1-31.2,1s12.9-21.2,19.4-24.5c6.5-3.2,14.4-0.4,17.6,6.1
	C630.6,633.4,628,641.1,621.8,644.4L621.8,644.4z"/>
<path class="st2" d="M609.3,696.2c-5.8,4.3-30.6,6.3-30.6,6.3s9.1-23.1,15-27.4c6-4.2,14.2-2.7,18.3,3.2
	C616,684,614.8,691.9,609.3,696.2L609.3,696.2z"/>
<path class="st2" d="M568.7,593.7c5.2,5.1,29.5,10.3,29.5,10.3s-5.9-24.1-11.2-29.2c-5.3-4.9-13.6-4.6-18.6,0.7
	C563.6,580.7,563.7,588.6,568.7,593.7L568.7,593.7z"/>
<path class="st2" d="M554.9,654.5c6.5,3.3,31.2,1,31.2,1s-12.9-21.2-19.4-24.5c-6.5-3.2-14.4-0.4-17.6,6.1
	C546.1,643.5,548.6,651.2,554.9,654.5L554.9,654.5z"/>
<path class="st2" d="M549.6,715.4c5.8,4.3,30.6,6.3,30.6,6.3s-9.1-23.1-15-27.4c-6-4.2-14.2-2.7-18.3,3.2
	C543,703.2,544.1,711.1,549.6,715.4z"/>
<path class="st0" d="M601,535.4c0,7.3-13.2,28.3-13.2,28.3s-13.2-21-13.2-28.3c0.2-7.3,6.2-13,13.5-12.8
	C595.2,522.8,600.8,528.4,601,535.4L601,535.4z"/>
<path class="st0" d="M622.7,575.6c-4,6.1-26.4,16.6-26.4,16.6s0.4-24.8,4.3-30.9c3.8-6.2,11.9-8.1,18.1-4.3
	c6.2,3.8,8.1,11.9,4.3,18.1C622.9,575.3,622.8,575.5,622.7,575.6z"/>
<path class="st0" d="M621.8,644.4c-6.5,3.3-31.2,1-31.2,1s12.9-21.2,19.4-24.5c6.5-3.2,14.4-0.4,17.6,6.1
	C630.6,633.4,628,641.1,621.8,644.4L621.8,644.4z"/>
<path class="st0" d="M609.3,696.2c-5.8,4.3-30.6,6.3-30.6,6.3s9.1-23.1,15-27.4c6-4.2,14.2-2.7,18.3,3.2
	C616,684,614.8,691.9,609.3,696.2L609.3,696.2z"/>
<path class="st0" d="M568.7,593.7c5.2,5.1,29.5,10.3,29.5,10.3s-5.9-24.1-11.2-29.2c-5.3-4.9-13.6-4.6-18.6,0.7
	C563.6,580.7,563.7,588.6,568.7,593.7L568.7,593.7z"/>
<path class="st0" d="M554.9,654.5c6.5,3.3,31.2,1,31.2,1s-12.9-21.2-19.4-24.5c-6.5-3.2-14.4-0.4-17.6,6.1
	C546.1,643.5,548.6,651.2,554.9,654.5L554.9,654.5z"/>
<path class="st0" d="M549.6,715.4c5.8,4.3,30.6,6.3,30.6,6.3s-9.1-23.1-15-27.4c-6-4.2-14.2-2.7-18.3,3.2
	C543,703.2,544.1,711.1,549.6,715.4z"/>
<path class="st3" d="M113.6,635c0,0,21,41.2,3.9,63.7s1.6,83.9,1.6,83.9"/>
<path class="st2" d="M119.8,622.1c0,7.9-5.8,14.4-5.8,14.4s-5.8-6.4-5.8-14.4s5.8-14.4,5.8-14.4S119.8,614.2,119.8,622.1z"/>
<path class="st3" d="M124.4,635c0,0-21,41.2-3.9,63.7s-1.6,83.9-1.6,83.9"/>
<path class="st2" d="M118.2,622.1c0,7.9,5.8,14.4,5.8,14.4s5.8-6.4,5.8-14.4s-5.8-14.4-5.8-14.4S118.2,614.2,118.2,622.1z"/>
<path class="st4" d="M118.2,622.1c0,7.9,5.8,14.4,5.8,14.4s5.8-6.4,5.8-14.4s-5.8-14.4-5.8-14.4S118.2,614.2,118.2,622.1z"/>
<path class="st3" d="M133,635c0,0,21,41.2,3.9,63.7s1.6,83.9,1.6,83.9"/>
<path class="st2" d="M139.2,622.1c0,7.9-5.8,14.4-5.8,14.4s-5.8-6.4-5.8-14.4s5.8-14.4,5.8-14.4S139.2,614.2,139.2,622.1z"/>
<path class="st2" d="M135.9,655.1c-5.5,5.7-14.2,6.3-14.2,6.3s0.3-8.7,5.8-14.4c5.5-5.7,14.2-6.3,14.2-6.3S141.4,649.4,135.9,655.1z
	"/>
<path class="st2" d="M136.4,683.5c-5.5,5.7-14.2,6.3-14.2,6.3s0.3-8.7,5.8-14.4c5.5-5.7,14.2-6.3,14.2-6.3S142,677.8,136.4,683.5z"
	/>
<path class="st2" d="M106.6,699.1c5.2,6,5,14.7,5,14.7s-8.6-1-13.8-7s-5-14.7-5-14.7S101.4,693.1,106.6,699.1z"/>
<path class="st2" d="M111.4,638.6c6.6,4.4,8.8,12.8,8.8,12.8s-8.6,1.3-15.2-3.1s-8.8-12.8-8.8-12.8S104.8,634.2,111.4,638.6z"/>
<path class="st4" d="M111.4,638.6c6.6,4.4,8.8,12.8,8.8,12.8s-8.6,1.3-15.2-3.1s-8.8-12.8-8.8-12.8S104.8,634.2,111.4,638.6z"/>
<path class="st3" d="M143.8,635c0,0-21,41.2-3.9,63.7s-1.5,83.9-1.5,83.9"/>
<path class="st2" d="M137.6,622.1c0,7.9,5.8,14.4,5.8,14.4s5.8-6.4,5.8-14.4s-5.8-14.4-5.8-14.4S137.6,614.2,137.6,622.1z"/>
<path class="st4" d="M137.6,622.1c0,7.9,5.8,14.4,5.8,14.4s5.8-6.4,5.8-14.4s-5.8-14.4-5.8-14.4S137.6,614.2,137.6,622.1z"/>
<path class="st2" d="M139.3,655.7c-5.6,5.7-5.9,14.3-5.9,14.3s8.7-0.5,14.2-6.1s5.9-14.3,5.9-14.3S144.9,650.1,139.3,655.7z"/>
<path class="st4" d="M139.3,655.7c-5.6,5.7-5.9,14.3-5.9,14.3s8.7-0.5,14.2-6.1s5.9-14.3,5.9-14.3S144.9,650.1,139.3,655.7z"/>
<path class="st2" d="M150.2,695c-5.6,5.7-5.9,14.3-5.9,14.3s8.7-0.5,14.2-6.1s5.9-14.3,5.9-14.3S155.8,689.4,150.2,695z"/>
<path class="st3" d="M134.1,686.4c0,0,12.6-19.9,30.3-20.3"/>
<path class="st3" d="M124.3,674.4c0,0-12.6-19.9-30.3-20.3"/>
<path class="st3" d="M122.7,702.8c0,0,12.6-19.9,30.3-20.3"/>
<circle class="st2" cx="163.9" cy="665.9" r="3.3"/>
<circle class="st2" cx="94.3" cy="654.2" r="3.3"/>
<path class="st3" d="M132,709.3c0,0-12.6-19.9-30.3-20.3"/>
<circle class="st2" cx="101.9" cy="689.1" r="3.3"/>
<circle class="st2" cx="153.3" cy="682.6" r="3.3"/>
<path class="st5" d="M201.7,758.6c0,0-30.4-6.1-38.5-14.2s-44.6-22.3-48.7-12.2s-54.7,44.6-20.3,50.7s81.1,8.1,91.2,4
	S201.7,758.6,201.7,758.6z"/>
<path class="st6" d="M94.3,779.1c34.5,6.1,81.1,8.1,91.2,4c7.7-3.1,13.1-17.9,15.2-24.8l1,0.2c0,0-6.1,24.3-16.2,28.4
	s-56.8,2-91.2-4c-9.9-1.8-12.8-5.9-11.7-11.1C83.4,775.2,86.9,777.8,94.3,779.1z"/>
<path class="st2" d="M709.2,685c0,0,10,13.1-4.6,33s-26.8,36.6-21.9,48.9c0,0,22.1-36.8,40.2-37.3S729,707.2,709.2,685z"/>
<path class="st4" d="M709.2,685c0.9,1.3,1.6,2.7,2,4.1c17.6,20.7,27,39.9,10,40.4c-15.7,0.5-34.6,28.6-39.2,35.7
	c0.1,0.5,0.3,1.1,0.5,1.6c0,0,22.1-36.8,40.2-37.3S729,707.2,709.2,685z"/>
<path class="st7" d="M727.8,701.8c0,4.6-0.5,8.4-1.2,8.4s-1.2-3.8-1.2-8.4s0.7-2.5,1.3-2.5S727.8,697.2,727.8,701.8z"/>
<path class="st7" d="M734.2,707.3c-4.1,2.2-7.6,3.5-7.9,3s2.7-2.8,6.8-5s2.5-0.6,2.8,0S738.3,705.1,734.2,707.3z"/>
<path class="st2" d="M656.1,685c0,0-10,13.1,4.6,33s26.8,36.6,21.9,48.9c0,0-22.1-36.8-40.2-37.3S636.3,707.2,656.1,685z"/>
<path class="st4" d="M656.1,685c-0.9,1.3-1.6,2.7-2,4.1c-17.6,20.7-27,39.9-10,40.4c15.7,0.5,34.6,28.6,39.2,35.7
	c-0.1,0.5-0.3,1.1-0.5,1.6c0,0-22.1-36.8-40.2-37.3S636.3,707.2,656.1,685z"/>
<path class="st7" d="M637.4,701.8c0,4.6,0.5,8.4,1.2,8.4s1.2-3.8,1.2-8.4s-0.7-2.5-1.3-2.5S637.4,697.2,637.4,701.8z"/>
<path class="st7" d="M631.1,707.3c4.1,2.2,7.6,3.5,7.9,3s-2.7-2.8-6.8-5s-2.5-0.6-2.8,0S627,705.1,631.1,707.3z"/>
<path class="st5" d="M640.7,765.2c0,0,28.1-0.9,36.5-6.9s43.2-13.2,45.3-3.6s42.2,48,10.5,48.3s-73.6-4.9-82.1-10.1
	S640.7,765.2,640.7,765.2z"/>
<path class="st6" d="M733.5,799.7c-31.7,0.3-73.6-4.9-82.1-10.1c-6.4-3.9-9-18-9.8-24.5h-0.9c0,0,1.8,22.7,10.2,27.8
	s50.4,10.3,82.1,10.1c9.2-0.1,12.3-3.3,12.1-8.2C743.8,797.8,740.3,799.7,733.5,799.7z"/>
<linearGradient id="SVGID_1_" gradientUnits="userSpaceOnUse" x1="-966.4804" y1="697.7656" x2="-966.4804" y2="789.9456" gradientTransform="matrix(-0.9428 -0.3335 0.3335 -0.9428 -618.4735 692.1541)">
	<stop  offset="0" style="stop-color:#808080;stop-opacity:0.25"/>
	<stop  offset="0.54" style="stop-color:#808080;stop-opacity:0.12"/>
	<stop  offset="1" style="stop-color:#808080;stop-opacity:0.1"/>
</linearGradient>
<polygon class="st8" points="454.7,331.6 485.4,244.7 626.8,294.7 596.1,381.6 "/>
<rect x="497.3" y="239.8" transform="matrix(0.3335 -0.9428 0.9428 0.3335 65.8174 717.5092)" class="st9" width="86" height="144.9"/>
<g class="st10">
	
		<rect x="489.7" y="256.1" transform="matrix(0.3335 -0.9428 0.9428 0.3335 80.7939 644.9631)" class="st2" width="13.6" height="18.4"/>
	
		<rect x="522.9" y="273.1" transform="matrix(0.3335 -0.9428 0.9428 0.3335 59.1404 700.6241)" class="st2" width="4.4" height="70.8"/>
	
		<rect x="529.8" y="299" transform="matrix(0.3312 -0.9435 0.9435 0.3312 48.8959 718.4104)" class="st2" width="2.9" height="51.4"/>
</g>
<linearGradient id="SVGID_2_" gradientUnits="userSpaceOnUse" x1="-917.0624" y1="315.0589" x2="-917.0624" y2="407.2389" gradientTransform="matrix(-0.9328 0.3605 -0.3605 -0.9328 -82.7918 947.6552)">
	<stop  offset="0" style="stop-color:#808080;stop-opacity:0.25"/>
	<stop  offset="0.54" style="stop-color:#808080;stop-opacity:0.12"/>
	<stop  offset="1" style="stop-color:#808080;stop-opacity:0.1"/>
</linearGradient>
<polygon class="st11" points="555.9,264.2 695.8,210.2 729,296.2 589.1,350.2 "/>
<rect x="569" y="236.7" transform="matrix(0.9328 -0.3605 0.3605 0.9328 -57.7051 250.0564)" class="st12" width="144.9" height="86"/>
<g class="st10">
	
		<rect x="568.5" y="265.7" transform="matrix(0.9328 -0.3605 0.3605 0.9328 -59.3997 226.565)" class="st2" width="18.4" height="13.6"/>
	
		<rect x="592" y="284.5" transform="matrix(0.9328 -0.3605 0.3605 0.9328 -61.1639 245.4563)" class="st2" width="70.8" height="4.4"/>
	
		<rect x="614.3" y="291.4" transform="matrix(0.9328 -0.3605 0.3605 0.9328 -62.5353 250.4348)" class="st2" width="51.6" height="3"/>
</g>
<linearGradient id="SVGID_3_" gradientUnits="userSpaceOnUse" x1="-1245.8115" y1="684.5623" x2="-1245.8115" y2="776.7423" gradientTransform="matrix(-0.9908 -0.135 0.135 -0.9908 -782.1683 766.1437)">
	<stop  offset="0" style="stop-color:#808080;stop-opacity:0.25"/>
	<stop  offset="0.54" style="stop-color:#808080;stop-opacity:0.12"/>
	<stop  offset="1" style="stop-color:#808080;stop-opacity:0.1"/>
</linearGradient>
<polygon class="st13" points="470.4,245.9 482.8,154.6 631.4,174.9 619,266.2 "/>
<rect x="510.5" y="138.9" transform="matrix(0.14 -0.9901 0.9901 0.14 266.7666 729.7659)" class="st12" width="86" height="144.9"/>
<g class="st10">
	
		<rect x="491.1" y="163.3" transform="matrix(0.135 -0.9908 0.9908 0.135 259.7069 642.5511)" class="st2" width="13.6" height="18.4"/>
	
		<rect x="532.4" y="173.6" transform="matrix(0.135 -0.9908 0.9908 0.135 255.3486 710.4542)" class="st2" width="4.4" height="70.8"/>
	
		<rect x="541.2" y="194.7" transform="matrix(0.135 -0.9908 0.9908 0.135 250.9391 728.4553)" class="st2" width="2.9" height="51.6"/>
</g>
<linearGradient id="SVGID_4_" gradientUnits="userSpaceOnUse" x1="-1032.8416" y1="502.8923" x2="-1032.8416" y2="595.0723" gradientTransform="matrix(-0.9908 -0.135 0.135 -0.9908 -782.1586 766.116)">
	<stop  offset="0" style="stop-color:#808080;stop-opacity:0.25"/>
	<stop  offset="0.54" style="stop-color:#808080;stop-opacity:0.12"/>
	<stop  offset="1" style="stop-color:#808080;stop-opacity:0.1"/>
</linearGradient>
<polygon class="st14" points="234.8,397.2 247.3,305.8 395.9,326.1 383.4,417.4 "/>
<rect x="271.8" y="288.3" transform="matrix(0.135 -0.9908 0.9908 0.135 -85.173 623.9392)" class="st12" width="86" height="144.9"/>
<g class="st10">
	
		<rect x="255.5" y="314.5" transform="matrix(0.135 -0.9908 0.9908 0.135 -93.8685 539.9452)" class="st2" width="13.6" height="18.4"/>
	<rect x="299.2" y="323" transform="matrix(0.14 -0.9901 0.9901 0.14 -95.686 606.599)" class="st2" width="4.4" height="70.8"/>
	
		<rect x="305.7" y="345.9" transform="matrix(0.135 -0.9908 0.9908 0.135 -102.6452 625.8392)" class="st2" width="3" height="51.6"/>
</g>
<linearGradient id="SVGID_5_" gradientUnits="userSpaceOnUse" x1="-989.1415" y1="595.5423" x2="-989.1415" y2="687.7223" gradientTransform="matrix(-0.9908 -0.135 0.135 -0.9908 -782.1401 766.1244)">
	<stop  offset="0" style="stop-color:#808080;stop-opacity:0.25"/>
	<stop  offset="0.54" style="stop-color:#808080;stop-opacity:0.12"/>
	<stop  offset="1" style="stop-color:#808080;stop-opacity:0.1"/>
</linearGradient>
<polygon class="st15" points="204,299.5 216.5,208.1 365.1,228.4 352.7,319.7 "/>
<rect x="241" y="190.6" transform="matrix(0.135 -0.9908 0.9908 0.135 -14.9891 508.9284)" class="st12" width="86" height="144.9"/>
<g class="st10">
	
		<rect x="224.7" y="216.8" transform="matrix(0.135 -0.9908 0.9908 0.135 -23.6759 424.9573)" class="st2" width="13.6" height="18.4"/>
	
		<rect x="266.1" y="227.1" transform="matrix(0.135 -0.9908 0.9908 0.135 -28.0538 492.8576)" class="st2" width="4.4" height="70.8"/>
	
		<rect x="274.9" y="248.2" transform="matrix(0.135 -0.9908 0.9908 0.135 -32.4525 510.8513)" class="st2" width="3" height="51.6"/>
</g>
<linearGradient id="SVGID_6_" gradientUnits="userSpaceOnUse" x1="-918.0861" y1="317.385" x2="-918.0861" y2="409.565" gradientTransform="matrix(-0.9583 0.2857 -0.2857 -0.9583 -354.3969 911.5347)">
	<stop  offset="0" style="stop-color:#808080;stop-opacity:0.25"/>
	<stop  offset="0.54" style="stop-color:#808080;stop-opacity:0.12"/>
	<stop  offset="1" style="stop-color:#808080;stop-opacity:0.1"/>
</linearGradient>
<polygon class="st16" points="336.5,278.2 480.3,235.3 506.6,323.7 362.9,366.5 "/>
<rect x="348.2" y="257.4" transform="matrix(0.9583 -0.2857 0.2857 0.9583 -68.2798 132.7069)" class="st9" width="144.9" height="86"/>
<g class="st10">
	
		<rect x="348.4" y="281.3" transform="matrix(0.9583 -0.2857 0.2857 0.9583 -67.4155 114.1872)" class="st2" width="18.4" height="13.6"/>
	
		<rect x="370.7" y="304" transform="matrix(0.9583 -0.2857 0.2857 0.9583 -70.5537 128.7924)" class="st2" width="70.8" height="4.4"/>
	
		<rect x="392.5" y="311.9" transform="matrix(0.9583 -0.2857 0.2857 0.9583 -72.0913 132.5579)" class="st2" width="51.6" height="3"/>
</g>
<linearGradient id="SVGID_7_" gradientUnits="userSpaceOnUse" x1="-703.566" y1="352.025" x2="-703.566" y2="444.205" gradientTransform="matrix(-0.9583 0.2857 -0.2857 -0.9583 -354.4004 911.5408)">
	<stop  offset="0" style="stop-color:#808080;stop-opacity:0.25"/>
	<stop  offset="0.54" style="stop-color:#808080;stop-opacity:0.12"/>
	<stop  offset="1" style="stop-color:#808080;stop-opacity:0.1"/>
</linearGradient>
<polygon class="st17" points="121.1,306.3 264.8,263.4 291.1,351.8 147.4,394.6 "/>
<rect x="132.7" y="285.4" transform="matrix(0.9583 -0.2857 0.2857 0.9583 -85.2856 72.3142)" class="st9" width="144.9" height="86"/>
<g class="st10">
	
		<rect x="133" y="309.5" transform="matrix(0.9583 -0.2857 0.2857 0.9583 -84.4324 53.8028)" class="st2" width="18.4" height="13.6"/>
	
		<rect x="155.3" y="332.1" transform="matrix(0.9583 -0.2857 0.2857 0.9583 -87.5659 68.4065)" class="st2" width="70.8" height="4.4"/>
	
		<rect x="174.7" y="340.8" transform="matrix(0.9573 -0.2892 0.2892 0.9573 -90.4092 72.6398)" class="st2" width="51.8" height="3"/>
</g>
<linearGradient id="SVGID_8_" gradientUnits="userSpaceOnUse" x1="-1080.4165" y1="477.188" x2="-1080.4165" y2="569.368" gradientTransform="matrix(-0.9328 0.3605 -0.3605 -0.9328 -82.791 947.6555)">
	<stop  offset="0" style="stop-color:#808080;stop-opacity:0.25"/>
	<stop  offset="0.54" style="stop-color:#808080;stop-opacity:0.12"/>
	<stop  offset="1" style="stop-color:#808080;stop-opacity:0.1"/>
</linearGradient>
<polygon class="st18" points="649.8,54.1 789.7,0.1 822.9,86 683,140.1 "/>
<rect x="663" y="26.6" transform="matrix(0.9328 -0.3605 0.3605 0.9328 24.3534 269.7885)" class="st12" width="144.9" height="86"/>
<g class="st10">
	
		<rect x="662.3" y="55.6" transform="matrix(0.9328 -0.3605 0.3605 0.9328 22.6603 246.2844)" class="st2" width="18.4" height="13.6"/>
	
		<rect x="685.9" y="74.4" transform="matrix(0.9328 -0.3605 0.3605 0.9328 20.8997 265.175)" class="st2" width="70.8" height="4.4"/>
	
		<rect x="708.2" y="81.3" transform="matrix(0.9328 -0.3605 0.3605 0.9328 19.5247 270.1542)" class="st2" width="51.6" height="2.9"/>
</g>
<linearGradient id="SVGID_9_" gradientUnits="userSpaceOnUse" x1="-823.2174" y1="513.1389" x2="-823.2174" y2="577.2889" gradientTransform="matrix(-0.9328 0.3605 -0.3605 -0.9328 -82.802 947.6583)">
	<stop  offset="0" style="stop-color:#808080;stop-opacity:0.25"/>
	<stop  offset="0.54" style="stop-color:#808080;stop-opacity:0.12"/>
	<stop  offset="1" style="stop-color:#808080;stop-opacity:0.1"/>
</linearGradient>
<polygon class="st19" points="428.3,131.2 525.6,93.6 548.8,153.4 451.4,191.1 "/>
<rect x="437.5" y="112.1" transform="matrix(0.9328 -0.3605 0.3605 0.9328 -18.387 185.4195)" class="st12" width="100.8" height="59.9"/>
<g class="st10">
	
		<rect x="437" y="132.2" transform="matrix(0.9328 -0.3605 0.3605 0.9328 -19.5656 169.0688)" class="st2" width="12.8" height="9.5"/>
	
		<rect x="453.4" y="145.3" transform="matrix(0.9328 -0.3605 0.3605 0.9328 -20.7907 182.2137)" class="st2" width="49.3" height="3.1"/>
	
		<rect x="468.9" y="150.1" transform="matrix(0.9328 -0.3605 0.3605 0.9328 -21.7463 185.6764)" class="st2" width="35.9" height="2.1"/>
</g>
<linearGradient id="SVGID_10_" gradientUnits="userSpaceOnUse" x1="-387.5474" y1="573.9389" x2="-387.5474" y2="638.0889" gradientTransform="matrix(-0.9328 0.3605 -0.3605 -0.9328 -82.7995 947.6681)">
	<stop  offset="0" style="stop-color:#808080;stop-opacity:0.25"/>
	<stop  offset="0.54" style="stop-color:#808080;stop-opacity:0.12"/>
	<stop  offset="1" style="stop-color:#808080;stop-opacity:0.1"/>
</linearGradient>
<polygon class="st20" points="0,231.6 97.4,194 120.5,253.8 23.1,291.4 "/>
<rect x="9.2" y="212.4" transform="matrix(0.9328 -0.3605 0.3605 0.9328 -83.3619 37.7717)" class="st12" width="100.8" height="59.9"/>
<g class="st10">
	
		<rect x="8.8" y="232.7" transform="matrix(0.9328 -0.3605 0.3605 0.9328 -84.5558 21.4394)" class="st2" width="12.8" height="9.5"/>
	
		<rect x="25.2" y="245.7" transform="matrix(0.9328 -0.3605 0.3605 0.9328 -85.7791 34.5805)" class="st2" width="49.3" height="3.1"/>
	
		<rect x="40.7" y="250.5" transform="matrix(0.9328 -0.3605 0.3605 0.9328 -86.7365 38.0469)" class="st2" width="35.9" height="2"/>
</g>
<linearGradient id="SVGID_11_" gradientUnits="userSpaceOnUse" x1="-1008.1274" y1="364.1789" x2="-1008.1274" y2="428.3289" gradientTransform="matrix(-0.9328 0.3605 -0.3605 -0.9328 -82.7925 947.6574)">
	<stop  offset="0" style="stop-color:#808080;stop-opacity:0.25"/>
	<stop  offset="0.54" style="stop-color:#808080;stop-opacity:0.12"/>
	<stop  offset="1" style="stop-color:#808080;stop-opacity:0.1"/>
</linearGradient>
<polygon class="st21" points="654.5,203.5 751.8,165.9 775,225.7 677.6,263.4 "/>
<rect x="663.6" y="184.4" transform="matrix(0.9328 -0.3605 0.3605 0.9328 -29.2408 271.818)" class="st9" width="100.8" height="59.9"/>
<g class="st10">
	
		<rect x="663.2" y="204.5" transform="matrix(0.9328 -0.3605 0.3605 0.9328 -30.4044 255.4632)" class="st2" width="12.8" height="9.5"/>
	
		<rect x="679.6" y="217.6" transform="matrix(0.9328 -0.3605 0.3605 0.9328 -31.6314 268.6049)" class="st2" width="49.3" height="3.1"/>
	
		<rect x="695.1" y="222.4" transform="matrix(0.9328 -0.3605 0.3605 0.9328 -32.5887 272.0714)" class="st2" width="35.9" height="2"/>
</g>
<linearGradient id="SVGID_12_" gradientUnits="userSpaceOnUse" x1="-898.4274" y1="562.9789" x2="-898.4274" y2="627.1289" gradientTransform="matrix(-0.9328 0.3605 -0.3605 -0.9328 -82.793 947.6549)">
	<stop  offset="0" style="stop-color:#808080;stop-opacity:0.25"/>
	<stop  offset="0.54" style="stop-color:#808080;stop-opacity:0.12"/>
	<stop  offset="1" style="stop-color:#808080;stop-opacity:0.1"/>
</linearGradient>
<polygon class="st22" points="480.5,57.6 577.8,20 601,79.8 503.6,117.5 "/>
<rect x="489.7" y="38.5" transform="matrix(0.9328 -0.3605 0.3605 0.9328 11.6557 199.2865)" class="st9" width="100.8" height="59.9"/>
<g class="st10">
	
		<rect x="489.2" y="58.6" transform="matrix(0.9328 -0.3605 0.3605 0.9328 10.479 182.9314)" class="st2" width="12.8" height="9.5"/>
	
		<rect x="505.6" y="71.7" transform="matrix(0.9328 -0.3605 0.3605 0.9328 9.254 196.0764)" class="st2" width="49.3" height="3.1"/>
	
		<rect x="521.1" y="76.5" transform="matrix(0.9328 -0.3605 0.3605 0.9328 8.2967 199.5428)" class="st2" width="35.9" height="2.1"/>
</g>
<linearGradient id="SVGID_13_" gradientUnits="userSpaceOnUse" x1="-1149.5315" y1="447.268" x2="-1149.5315" y2="511.418" gradientTransform="matrix(-0.9328 0.3605 -0.3605 -0.9328 -82.7901 947.6555)">
	<stop  offset="0" style="stop-color:#808080;stop-opacity:0.25"/>
	<stop  offset="0.54" style="stop-color:#808080;stop-opacity:0.12"/>
	<stop  offset="1" style="stop-color:#808080;stop-opacity:0.1"/>
</linearGradient>
<polygon class="st23" points="756.4,75 853.8,37.4 876.9,97.3 779.5,134.9 "/>
<rect x="765.6" y="55.9" transform="matrix(0.9328 -0.3605 0.3605 0.9328 23.9278 299.9288)" class="st9" width="100.8" height="59.9"/>
<g class="st10">
	
		<rect x="765.2" y="76" transform="matrix(0.9328 -0.3605 0.3605 0.9328 22.7683 283.5694)" class="st2" width="12.8" height="9.5"/>
	
		<rect x="781.6" y="89.1" transform="matrix(0.9328 -0.3605 0.3605 0.9328 21.5414 296.7113)" class="st2" width="49.3" height="3.1"/>
	
		<rect x="797" y="93.9" transform="matrix(0.9328 -0.3605 0.3605 0.9328 20.5809 300.1796)" class="st2" width="35.9" height="2.1"/>
</g>
<linearGradient id="SVGID_14_" gradientUnits="userSpaceOnUse" x1="-443.8574" y1="689.9089" x2="-443.8574" y2="754.0589" gradientTransform="matrix(-0.9328 0.3605 -0.3605 -0.9328 -82.8033 947.6573)">
	<stop  offset="0" style="stop-color:#808080;stop-opacity:0.25"/>
	<stop  offset="0.54" style="stop-color:#808080;stop-opacity:0.12"/>
	<stop  offset="1" style="stop-color:#808080;stop-opacity:0.1"/>
</linearGradient>
<polygon class="st24" points="10.7,103.1 108.1,65.5 131.2,125.3 33.8,162.9 "/>
<rect x="19.9" y="83.9" transform="matrix(0.9328 -0.3605 0.3605 0.9328 -36.3248 32.9993)" class="st9" width="100.8" height="59.9"/>
<g class="st10">
	
		<rect x="19.5" y="104.2" transform="matrix(0.9328 -0.3605 0.3605 0.9328 -37.5188 16.656)" class="st2" width="12.8" height="9.5"/>
	
		<rect x="35.9" y="117.2" transform="matrix(0.9328 -0.3605 0.3605 0.9328 -38.7438 29.8009)" class="st2" width="49.3" height="3.1"/>
	
		<rect x="51.4" y="122" transform="matrix(0.9328 -0.3605 0.3605 0.9328 -39.7031 33.2642)" class="st2" width="35.9" height="2.1"/>
</g>
<linearGradient id="SVGID_15_" gradientUnits="userSpaceOnUse" x1="-1048.0415" y1="658.9523" x2="-1048.0415" y2="751.1323" gradientTransform="matrix(-0.9908 -0.135 0.135 -0.9908 -782.1543 766.1249)">
	<stop  offset="0" style="stop-color:#808080;stop-opacity:0.25"/>
	<stop  offset="0.54" style="stop-color:#808080;stop-opacity:0.12"/>
	<stop  offset="1" style="stop-color:#808080;stop-opacity:0.1"/>
</linearGradient>
<polygon class="st25" points="271,244.6 283.4,153.3 432,173.5 419.6,264.8 "/>
<rect x="307.9" y="135.7" transform="matrix(0.135 -0.9908 0.9908 0.135 97.2389 527.7724)" class="st12" width="86" height="144.9"/>
<g class="st10">
	<rect x="291.7" y="162" transform="matrix(0.135 -0.9908 0.9908 0.135 88.568 443.7974)" class="st2" width="13.6" height="18.4"/>
	<rect x="333" y="172.2" transform="matrix(0.135 -0.9908 0.9908 0.135 84.1997 511.709)" class="st2" width="4.4" height="70.8"/>
	
		<rect x="341.8" y="193.3" transform="matrix(0.135 -0.9908 0.9908 0.135 79.7901 529.7101)" class="st2" width="2.9" height="51.6"/>
</g>
<linearGradient id="SVGID_16_" gradientUnits="userSpaceOnUse" x1="416.9816" y1="283.5001" x2="416.9816" y2="665.18" gradientTransform="matrix(1 0 0 -1 -131.56 797)">
	<stop  offset="0" style="stop-color:#808080;stop-opacity:0.25"/>
	<stop  offset="0.54" style="stop-color:#808080;stop-opacity:0.12"/>
	<stop  offset="1" style="stop-color:#808080;stop-opacity:0.1"/>
</linearGradient>
<path class="st26" d="M419.6,414.5c-1.5-15.2-8.4-29.3-19.3-39.9c-13.1-12.8-36.4-29.7-75-42.2c-70.5-22.9-97.1-43.1-128.3-98
	l-27.5-67.8v31.1l-17.4-66c0,0-7.8,70.1,16,126c0,0-11.9,10.1,0,27.5c0,0-28.4-4.6-4.6,42.1l20.2,29.3c0,0-20.2,9.2,8.2,41.2
	l16.5,15.5c0,0-39.4,12.8,12.8,58.6c0,0,66.9,54.1,120.9,38.5C389.6,497,424.2,463,419.6,414.5z"/>
<path class="st27" d="M416.3,412.3c-1.5-14.8-8.2-28.6-18.9-38.9c-12.8-12.4-35.5-28.9-73.1-41.2c-68.8-22.4-94.8-42-125.2-95.7
	l-26.8-66.1v30.4l-17-64.4c0,0-7.6,68.4,15.6,122.9c0,0-11.6,9.8,0,26.8c0,0-27.7-4.5-4.5,41.1l19.7,28.6c0,0-19.7,8.9,8,40.2
	l16.1,15.2c0,0-38.4,12.5,12.5,57.2c0,0,65.3,52.7,118,37.5C387,492.8,420.9,459.6,416.3,412.3z"/>
<path class="st28" d="M213.9,308.5l-51.9-127.8c0,0,5.4,60.8,18.8,86.7c0,0-17-11.6,7.1,37.5c0,0-51.9-39.3,0,40.2l20.6,19.7
	c0,0-36.5-15.6-17.6,16c7.2,12,17.1,22.1,28.9,29.5l15.6,9.9c0,0-51.9-16.1-17.9,31.3c0,0,36.6,34.9,59.9,37.6
	c0,0-59.9-38.4-45.6-52.7s53.6,10.7,53.6,10.7s-69.7-48.3-66.1-60.8s37.5,16.1,37.5,16.1s-71.5-68.8-67.9-79.6s5.4-11.6,28.6,11.6
	c0,0-30.4-42.9-25.9-49.2S213.9,308.5,213.9,308.5z"/>
<path class="st28" d="M390.9,464.1c0,0,50-59-47.4-93c-24.7-8.5-48.7-18.9-71.8-31.2c-42-22.5-73.1-61.1-86.2-106.9
	c-2.4-8.5-3.5-14.9-2.1-16.6c0,0,29.5,78.7,91.2,106.4l81.4,30.4C356.1,353.2,449,388.1,390.9,464.1z"/>
<linearGradient id="SVGID_17_" gradientUnits="userSpaceOnUse" x1="1882.8975" y1="283.4802" x2="1882.8975" y2="665.22" gradientTransform="matrix(-1 0 0 -1 2462.4399 797)">
	<stop  offset="0" style="stop-color:#808080;stop-opacity:0.25"/>
	<stop  offset="0.54" style="stop-color:#808080;stop-opacity:0.12"/>
	<stop  offset="1" style="stop-color:#808080;stop-opacity:0.1"/>
</linearGradient>
<path class="st29" d="M445.4,414.5c1.5-15.2,8.4-29.3,19.3-39.9c13.1-12.8,36.4-29.7,75-42.2c70.5-22.9,97.1-43.1,128.3-98
	l27.4-67.8v31.1l17.4-66c0,0,7.8,70.1-16,126c0,0,11.9,10.1,0,27.5c0,0,28.4-4.6,4.6,42.1l-20.2,29.3c0,0,20.2,9.2-8.3,41.3
	l-16.5,15.6c0,0,39.4,12.8-12.8,58.6c0,0-66.9,54.1-120.9,38.5C475.4,497,440.8,463,445.4,414.5z"/>
<path class="st27" d="M448.7,412.3c1.5-14.8,8.2-28.6,18.8-38.9c12.8-12.4,35.5-28.9,73.1-41.2c68.8-22.4,94.8-42,125.2-95.7
	l26.8-66.1v30.4l17-64.4c0,0,7.6,68.4-15.6,122.9c0,0,11.6,9.8,0,26.8c0,0,27.7-4.5,4.5,41.1l-19.7,28.6c0,0,19.7,8.9-8,40.2
	l-16.1,15.2c0,0,38.4,12.5-12.5,57.2c0,0-65.3,52.7-118,37.5C478,492.8,444.1,459.6,448.7,412.3z"/>
<path class="st28" d="M651.1,308.5l51.8-127.8c0,0-5.4,60.8-18.8,86.7c0,0,17-11.6-7.2,37.5c0,0,51.8-39.3,0,40.2l-20.6,19.7
	c0,0,36.5-15.6,17.7,16c-7.2,12-17.1,22.1-28.9,29.5l-15.6,9.9c0,0,51.8-16.1,17.9,31.3c0,0-36.7,34.9-59.9,37.6
	c0,0,59.9-38.4,45.6-52.7s-53.6,10.7-53.6,10.7s69.7-48.3,66.2-60.8s-37.5,16.1-37.5,16.1s71.5-68.8,67.9-79.6s-5.4-11.6-28.6,11.6
	c0,0,30.4-42.9,25.9-49.2S651.1,308.5,651.1,308.5z"/>
<path class="st28" d="M474.1,464.1c0,0-50-59,47.4-93c24.7-8.5,48.7-18.9,71.8-31.2c42-22.5,73.1-61.1,86.2-106.9
	c2.4-8.5,3.5-14.9,2.1-16.6c0,0-29.5,78.7-91.2,106.4l-81.3,30.4C508.9,353.2,416,388.1,474.1,464.1z"/>
<linearGradient id="SVGID_18_" gradientUnits="userSpaceOnUse" x1="540.3251" y1="280.47" x2="540.3251" y2="280.74" gradientTransform="matrix(1 0 0 -1 -131.56 797)">
	<stop  offset="0" style="stop-color:#808080;stop-opacity:0.25"/>
	<stop  offset="0.54" style="stop-color:#808080;stop-opacity:0.12"/>
	<stop  offset="1" style="stop-color:#808080;stop-opacity:0.1"/>
</linearGradient>
<path class="st30" d="M408.2,516.3c0.3,0.3,0.7,0.3,1.1,0.1C408.9,516.4,408.6,516.4,408.2,516.3z"/>
<linearGradient id="SVGID_19_" gradientUnits="userSpaceOnUse" x1="523.9816" y1="139.1466" x2="523.9816" y2="539.3589" gradientTransform="matrix(1 0 0 -1 -131.56 797)">
	<stop  offset="0" style="stop-color:#808080;stop-opacity:0.25"/>
	<stop  offset="0.54" style="stop-color:#808080;stop-opacity:0.12"/>
	<stop  offset="1" style="stop-color:#808080;stop-opacity:0.1"/>
</linearGradient>
<path class="st31" d="M530.3,317.8c-2.2-0.6-5.2-1.6-8.9-2.9c3.8-5,6.7-10.6,8.3-16.7l-0.3,0.1c0.1-0.4,0.2-0.7,0.3-1.1
	c-7.1,2.9-15-2-20-8.3s-8.4-14.1-13.9-19.8c-2.3-2.3-4.7-4.4-7.4-6.3c-1.6-1.2-3.4-2.5-5.3-2.6c-3.2-0.1-5.7,3-8.8,4
	c-2,0.5-4.1,0.4-6.1-0.2c-7.9-1.8-15.6-5.2-23.7-6.1c-4.3-0.5-8.7,0-12.8,1.5c-4.1,1.5-5.9,4.6-9.2,7.1c-3.5,2.6-10.6,2.6-14.8,3.1
	c-5.1,0.6-10.2,0.8-15.3,0.6c-2.9-0.3-5.9-0.1-8.8,0.3c-6.1,1.3-11,6.2-15.5,10.8c-1.2,1-2.1,2.4-2.6,4c-0.1,0.4-0.1,0.9,0,1.3
	c0,1.2,0.2,2.4,0.6,3.5c1.4,4.2,3.4,8.1,5.9,11.7c1.9,2.7,4,5.2,5.1,8.3c0.5,1.5,0.8,3.2,0.8,4.8c-0.1,1.7-0.2,3.4-0.5,5.1
	c-0.8,4.7-2.1,9.3-3.9,13.7c-1,2.3-2.1,4.7-2.3,7.2c0,0.5,0,1,0,1.5c-0.3,7.9,7.7,13.6,9.2,21.5c0.1,0.7,0.2,1.3,0.2,2
	c-0.2,4.9-3,9.7-7.1,11.6c0.4,0.1,0.7,0.3,1.1,0.4c-0.4,0.2-0.7,0.4-1.1,0.6c0.8,0.3,1.5,0.5,2.3,0.8c-4.7,4.1-8.6,8.9-11.7,14.3
	c-13.8,25.8-107.6,76.3-107.6,76.3s0.5,0.3,1.4,0.8l-1.1,0.7c-8.1,5.4-27.2,21.2-10,41.1c0,0,13.5-21.2,22.9-30.3
	c0.4-0.4,0.8-0.8,1.2-1.1c0.4,0.6,0.6,1.4,0.4,2.2l61.7-34.7c0,0,21.9-15.4,28-18.8c2.1-1.2,7.5-4.5,13.9-6l-0.7,0.3
	c2.3-0.6,4.7-1,7.1-1c10.9,0.2,22.8,8.2,26.7,39.9c5.2,42.4,2.8,50.1,1.1,51.1c-0.2,0-0.4,0-0.6-0.1c0,0,0.1,0.1,0.2,0.1
	c-0.2,0-0.5-0.1-0.7-0.1c0.2,0.2,0.6,0.3,0.9,0.2c0.2,0.1,0.5,0,0.7-0.1l0,0c0.3,0,0.5,0,0.8,0c0,0.4,0,0.8-0.1,1.2
	c-0.1,0-0.5,0.2,0,0.2l0,0c-0.1,2.4-0.1,5,0,7.7c-5.4,0.3-10.8,0.6-15.6,0.9l0.4-2.2l0.2-1c4.2-0.3,8.1-1.6,8.6-4.9
	c1-7.4-9.2-11.4-17.8-11.9s-60.7,3-60.7,3s-7.8,10.1,16.9,13.2c0.7,0.4,1.5,0.8,2.3,1.2c9.7,5.5,22.8,15.7,29.1,20.7l0.9,0.7
	l-2.8,2.2c15.3,3.5,30.1,61.9,38.3,88.7s26,25.8,40.8,21.8c13.9-3.7,15.6-44,15.8-49v-0.5l24.7,30.4l1.9,2.3
	c0.7,0.4,1.4,0.7,2.1,1.1c18.7,8.9,39.3-8.2,33.4-27.5c-5.9-19.6-15.1-48.5-21.3-60.7c-5.1-10.2-11.8-27.2-15.8-37.9
	c0.5-0.2,1-0.5,1.5-0.7c0,0-0.1-0.5-0.2-1.3l0.2-0.1c0,0-5.9-30.8-6.3-52.7c0-0.4,0-0.8,0-1.1c0-0.2,0-0.5,0-0.7
	c4.5-1,7.3-1.4,7.3-1.4l0.1-1l-0.5,0.1l2.5-28.4c0,0,9.1-19.4,2.1-27.4c-2.1-2.4-3.5-5.3-4.1-8.4c-1.2-7.4,0-19.8,16.2-30.1
	c25-15.9,34.7-28.7,34.7-28.7S545.6,322.3,530.3,317.8z M480.7,337.5v-13.1c4.6-0.2,9.4,0.3,14,0c2.3-0.2,4.6-0.5,6.8-1.1l1.1,0.8
	C495.8,329.3,488.4,333.8,480.7,337.5z M409.8,543.1c1.8,1.3,3.7,2.6,5.5,3.9c1.1,6.5,2.1,11,2.2,11.4
	C415.4,553.1,412.9,548,409.8,543.1z"/>
<path class="st32" d="M449.4,532.3l-1.1,5.9l-0.8,4.5l-1.5,8.2l-14.6,10.2c0,0-1.3-1.1-3.5-2.9c-6-4.9-18.6-15-27.9-20.4
	c-2.4-1.5-5-2.7-7.7-3.5L449.4,532.3z"/>
<path class="st4" d="M449.4,532.3l-1.1,5.9c-3.2,0.2-6.5,0-9.7-0.5l-34.2,0.5c-1.6-0.1-3.1-0.2-4.5-0.4c-2.4-1.5-5-2.7-7.7-3.5
	L449.4,532.3z"/>
<path class="st33" d="M438.7,536.7c0,0,17.1,2.9,18-4.4s-8.8-11.2-17.1-11.7s-58.1,2.9-58.1,2.9s-8.8,11.7,22.9,13.7L438.7,536.7z"
	/>
<path class="st4" d="M449.4,532.3l-1.1,5.9l-0.8,4.5l-1.5,8.2l-14.6,10.2c0,0-1.3-1.1-3.5-2.9c-6-4.9-18.6-15-27.9-20.4
	c-2.4-1.5-5-2.7-7.7-3.5L449.4,532.3z"/>
<path class="st4" d="M449.4,532.3l-1.1,5.9c-3.2,0.2-6.5,0-9.7-0.5l-34.2,0.5c-1.6-0.1-3.1-0.2-4.5-0.4c-2.4-1.5-5-2.7-7.7-3.5
	L449.4,532.3z"/>
<path class="st4" d="M438.7,536.7c0,0,17.1,2.9,18-4.4s-8.8-11.2-17.1-11.7s-58.1,2.9-58.1,2.9s-8.8,11.7,22.9,13.7L438.7,536.7z"/>
<rect x="386.7" y="296.2" class="st34" width="89.3" height="105.9"/>
<rect x="386.7" y="296.2" class="st4" width="89.3" height="105.9"/>
<path class="st32" d="M282.1,477.5c-1.5,0.4-3.4,1.8-5.4,3.8c-9,8.9-21.9,29.8-21.9,29.8c-16.5-19.6,1.7-35.1,9.5-40.5
	c1.9-1.3,3.2-2,3.2-2L282.1,477.5z"/>
<path class="st32" d="M448.4,329.6c0,0,4.4,30.7,19.5,38.1s-19.5,21-19.5,21l-47.3-17.6c0,0,26.8-8.8,21.5-34.6L448.4,329.6z"/>
<path class="st32" d="M397.7,514.5l-1.1,5.9l-0.8,4.5l-1.5,8.2l-14.6,10.2c0,0-1.3-1.1-3.5-2.9c-6-4.9-18.6-15-27.9-20.4
	c-2.4-1.5-5-2.7-7.7-3.5L397.7,514.5z"/>
<path class="st4" d="M397.7,514.5l-1.1,5.9c-3.2,0.2-6.5,0-9.7-0.5l-34.2,0.5c-1.6-0.1-3.1-0.2-4.5-0.4c-2.4-1.5-5-2.7-7.7-3.5
	L397.7,514.5z"/>
<path class="st33" d="M387,518.9c0,0,17.1,2.9,18-4.4s-8.8-11.2-17.1-11.7s-58.1,2.9-58.1,2.9s-8.8,11.7,22.9,13.7L387,518.9z"/>
<path class="st4" d="M395.8,524.9l-1.5,8.2l-14.6,10.2c0,0-1.3-1.1-3.5-2.9l19.4-15.9L395.8,524.9z"/>
<path class="st33" d="M492.4,636.6c-0.7-0.3-1.3-0.7-2-1l-1.8-2.3l-23.6-30v0.5c-0.2,5-1.8,44.6-15.1,48.3
	c-14.2,3.9-31.2,4.9-39-21.5s-22-83.9-36.6-87.3l21.7-17.8c0,0,14.4,16.8,20.2,32.9c-0.2-1-10.2-47.4-2-55.6h71.2
	c0,0,11,31.3,18.5,46.8c5.9,12,14.7,40.5,20.3,59.8C530,628.6,510.3,645.3,492.4,636.6z"/>
<path class="st4" d="M490.4,511.6c-11,6.5-59.3,3.9-75,2.8l-4.3-0.3c-0.5,0,0.1-0.3,0.1-0.3l0.4-4.4l11.7-29.8l62.7-36.4
	c-1.3,3.8-1.7,9.7-1.6,16.4C484.7,481.3,490.4,511.6,490.4,511.6z"/>
<path class="st35" d="M490.4,510.2c-11,6.5-59.3,3.9-75,2.8l-4.3-0.3l-0.7,0l0.8-0.2l3.8-1l8.3-33.2l62.7-36.4
	c-1.3,3.8-1.7,9.7-1.6,16.4C484.7,479.8,490.4,510.2,490.4,510.2z"/>
<path class="st4" d="M484.4,458.2c-12.8,2.9-40.8,11.6-51.6,32.4c-7.2,13.9-13.2,19.8-17.5,22.3l-4.3-0.3l0.1-0.3l3.8-1l8.3-33.2
	l62.7-36.4C484.8,445.7,484.3,451.5,484.4,458.2z"/>
<path class="st4" d="M267.4,468.7l14.6,8.8c-1.5,0.4-3.4,1.8-5.4,3.8c-1.2-3.6-8.9-8.5-12.4-10.6
	C266.1,469.4,267.4,468.7,267.4,468.7z"/>
<path class="st4" d="M408.5,513.2c-0.3,0.2-0.7,0.1-1-0.1C407.8,513.2,408.2,513.2,408.5,513.2z"/>
<path class="st36" d="M441.6,365.7c0,0-13.2,1.5-22.5-8.3c0,0-39,11.2-52.2,36.6s-103,75.1-103,75.1s15.6,8.8,14.1,13.2l59-34.2
	c0,0,21-15.1,26.8-18.5s38.1-24.4,44.9,32.7s0,50.3,0,50.3s9.8,3.4,23.9-23.9s58.2-33.7,58.2-33.7l2.4-28.8c0,0,8.7-19.1,2-27
	c-2-2.3-3.4-5.2-3.9-8.3c-1.1-7.3,0-19.5,15.5-29.6c23.9-15.6,33.2-28.3,33.2-28.3s0.5-9.3-14.2-13.7s-74.2-28.3-74.2-28.3l-2,8.3
	l46.8,33.2c0,0-23.4,19-42,18.5C454.8,351.1,458.2,365.2,441.6,365.7z"/>
<path class="st4" d="M450.7,343c-1.2-3.9-2.1-7.9-2.7-11.9l-25.9,6.8c1.1,4.9,0.9,10.1-0.6,14.9C432.3,355.7,443.8,351.8,450.7,343z
	"/>
<circle class="st32" cx="429.2" cy="324.5" r="27.8"/>
<path class="st4" d="M444,261.2c7.7,0.9,15.1,4.2,22.7,6c1.9,0.6,3.9,0.7,5.9,0.2c3-0.9,5.3-4,8.4-3.9c1.9,0.1,3.5,1.3,5.1,2.6
	c2.5,1.9,4.8,4,7,6.2c5.2,5.7,8.5,13.4,13.3,19.5s12.3,11,19.1,8.2c-4.6,18-19.8,31.7-36.1,32.8c-6.5,0.5-13.2-0.9-19.5,1
	c-1.6,0.6-3.2,1-4.9,1.2c-3.6,0-6.6-3.3-8.8-6.6c-5.3-7.6-9.5-16.3-15.5-23.3c-2-2.3-4.3-4.5-7.1-4.9s-5.4,0.9-7.9,2.2
	c-4.1,2.1-8.3,4.3-11.5,8s-5.2,9.1-3.9,14c0.7,2.7,2.3,5.1,2.4,7.8c0,4.4-3.9,7.7-4.6,12c-0.2,1.8-0.2,3.6-0.2,5.5
	c-0.3,5.9-4.2,10.8-8.2,14.5c-1.6,1.5-3.3,3-3.8,5.2c-0.3,1.5,0,3.1-0.2,4.7c-0.6,3.8-4.4,5.8-7.8,6.3c-4,0.6-8,0.1-11.7-1.4
	c4.7-2.2,7.6-8.6,6.6-14.3c-1.5-7.9-9.5-13.6-8.8-21.7c0.4-2.5,1.1-4.9,2.2-7.1c1.7-4.4,3-8.9,3.8-13.5c0.6-3.6,0.9-7.4-0.2-10.8
	c-1-3.1-3.1-5.6-4.9-8.2c-2.4-3.6-4.3-7.4-5.6-11.5c-0.5-1.2-0.7-2.5-0.5-3.8c0.4-1.5,1.3-2.9,2.5-4c4.4-4.6,9-9.3,14.8-10.6
	c2.8-0.5,5.6-0.6,8.4-0.3c4.9,0.2,9.8-0.1,14.6-0.6c4-0.5,10.8-0.4,14.2-3c3.2-2.4,4.9-5.5,8.8-7C435.6,261.2,439.8,260.7,444,261.2
	z"/>
<path class="st4" d="M459.4,548.5c0,0,16.1,31.7,11.2,41.5"/>
<path class="st4" d="M488.6,633.3L465,603.3v0.5c0,0-1.4-9.7,3.1-6.4c9.8,7.1,25.6,18.8,25.9,20.8S490.9,628.3,488.6,633.3z"/>
<g class="st37">
	<path d="M455.3,351.1c0,0,2,8.2-4.5,12.4c9.9-1.7,10.3-9.4,10-12.8C459,351,457.1,351.1,455.3,351.1z"/>
	<path d="M269.9,467.2c0,0,89.8-49.8,103-75.1c9.4-18.2,32.2-29.1,44.3-33.9c-8.8,3-38.5,14.3-49.7,35.8
		c-13.2,25.4-103,75.1-103,75.1L269.9,467.2z"/>
	<path d="M472.7,347.2c15.3-4.8,29.9-16.6,29.9-16.6l-46.8-33.2l1.1-4.5l-4.5-1.8l-2,8.3l46.8,33.2
		C489.7,338.4,481.5,343.4,472.7,347.2z"/>
	<path d="M473,459.6c6-2.1,12.2-3.6,18.4-4.6l0.1-0.9C485.2,455.4,479,457.3,473,459.6z"/>
	<path d="M416.2,510.8h-0.4c-0.3,0.2-0.7,0.1-1-0.1c0.3,0.1,0.7,0.1,1,0.1c1.6-0.9,4-8.2-1-50.4c-5.4-45-26.5-41.5-38.1-36.3
		c11.8-3.3,28.1-0.4,32.8,38.3c5,42.2,2.6,49.5,1,50.4C412.5,512.6,414.5,512,416.2,510.8z"/>
	<path d="M410.4,512.7c-0.3,0-0.7,0-1-0.1C409.7,512.8,410.1,512.9,410.4,512.7z"/>
</g>
<path class="st34" d="M444,260.3c7.7,0.9,15.1,4.2,22.7,6c1.9,0.6,3.9,0.7,5.9,0.2c3-0.9,5.3-4,8.4-3.9c1.9,0.1,3.5,1.3,5.1,2.6
	c2.5,1.9,4.8,4,7,6.2c5.2,5.7,8.5,13.4,13.3,19.5s12.3,11,19.1,8.2c-4.6,18-19.8,31.7-36.1,32.8c-6.5,0.5-13.2-0.9-19.5,1
	c-1.6,0.6-3.2,1-4.9,1.2c-3.6,0-6.6-3.3-8.8-6.6c-5.3-7.6-9.5-16.3-15.5-23.3c-2-2.3-4.3-4.5-7.1-4.9s-5.4,0.9-7.9,2.2
	c-4.1,2.1-8.3,4.3-11.5,8s-5.2,9.1-3.9,14c0.7,2.7,2.3,5.1,2.4,7.8c0,4.4-3.9,7.7-4.6,12c-0.2,1.8-0.2,3.6-0.2,5.5
	c-0.3,5.9-4.2,10.8-8.2,14.5c-1.6,1.5-3.3,3-3.8,5.2c-0.3,1.5,0,3.1-0.2,4.7c-0.6,3.8-4.4,5.8-7.8,6.3c-4,0.6-8,0.1-11.7-1.4
	c4.7-2.2,7.6-8.6,6.6-14.3c-1.5-7.9-9.5-13.6-8.8-21.7c0.4-2.5,1.1-4.9,2.2-7.1c1.7-4.4,3-8.9,3.8-13.5c0.6-3.6,0.9-7.4-0.2-10.8
	c-1-3.1-3.1-5.6-4.9-8.2c-2.4-3.6-4.3-7.4-5.6-11.5c-0.5-1.2-0.7-2.5-0.5-3.8c0.4-1.5,1.3-2.9,2.5-4c4.4-4.6,9-9.3,14.8-10.6
	c2.8-0.5,5.6-0.6,8.4-0.3c4.9,0.2,9.8-0.1,14.6-0.6c4-0.5,10.8-0.4,14.2-3c3.2-2.4,4.9-5.5,8.8-7C435.6,260.2,439.8,259.7,444,260.3
	z"/>
</svg>
